<?xml version="1.0" encoding="UTF-8"?>
<svg version="1.1" xmlns="http://www.w3.org/2000/svg" width="1080" height="1080">
<path d="M0 0 C1.34486931 -0.00702217 2.68973828 -0.01410899 4.03460693 -0.02125549 C8.3095345 -0.0406577 12.58440784 -0.04568966 16.859375 -0.046875 C17.95185547 -0.04753778 17.95185547 -0.04753778 19.06640625 -0.04821396 C41.05288634 -0.05521029 62.78041897 0.24801364 84.609375 3.203125 C85.98010004 3.38216691 87.3508697 3.56086748 88.72167969 3.73925781 C188.09237022 16.83844371 283.26766638 56.77226106 366.609375 125.203125 C367.20556641 125.70021973 367.80175781 126.19731445 368.41601562 126.70947266 C382.11898767 138.17268108 394.96237866 150.46977303 407.609375 163.078125 C408.10428436 163.57035553 408.59919373 164.06258606 409.10910034 164.56973267 C414.83071478 170.2678087 420.36800054 176.05795155 425.609375 182.203125 C426.63061643 183.3600152 427.65402281 184.51499826 428.6796875 185.66796875 C436.16329627 194.14785494 443.17279065 202.90186623 449.93701172 211.96435547 C451.64391519 214.24936347 453.36284436 216.52500581 455.08203125 218.80078125 C474.72472271 244.95743599 490.93294626 273.00890711 505.609375 302.203125 C506.0640918 303.09789551 506.51880859 303.99266602 506.98730469 304.91455078 C535.97375781 362.20791297 552.03450081 426.44635901 557.609375 490.203125 C557.74036842 491.65940811 557.74036842 491.65940811 557.87400818 493.14511108 C558.55920696 501.28331852 558.78378673 509.36638612 558.8125 517.53125 C558.81951915 518.88035618 558.826606 520.22946201 558.83375549 521.5785675 C558.85317628 525.87009145 558.8581897 530.16156155 558.859375 534.453125 C558.85981686 535.18354382 558.86025871 535.91396263 558.86071396 536.66651535 C558.86758798 558.31814522 558.63589365 579.71894036 555.609375 601.203125 C555.43021776 602.52533023 555.25152136 603.84759797 555.07324219 605.16992188 C541.79616485 702.45799992 502.76780457 795.40041195 435.609375 877.203125 C434.86373291 878.09741211 434.86373291 878.09741211 434.10302734 879.00976562 C422.4874152 892.89491912 410.00993781 905.89015561 397.234375 918.703125 C396.71822632 919.22195251 396.20207764 919.74078003 395.67028809 920.27532959 C389.83056726 926.1380451 383.92167004 931.84481167 377.609375 937.203125 C376.52600198 938.15211625 375.44392097 939.10258494 374.36328125 940.0546875 C366.07675548 947.28187825 357.48790194 954.02743047 348.69580078 960.62695312 C346.74624861 962.09972505 344.81413541 963.59218789 342.88671875 965.09375 C270.59267858 1021.02438961 180.46352127 1055.87892461 37.21875 1071.40625 C35.87388069 1071.41327217 34.52901172 1071.42035899 33.18414307 1071.42750549 C28.9092155 1071.4469077 24.63434216 1071.45193966 20.359375 1071.453125 C19.26689453 1071.45378778 19.26689453 1071.45378778 18.15234375 1071.45446396 C-3.83413634 1071.46146029 -25.56166897 1071.15823636 -47.390625 1068.203125 C-48.76135004 1068.02408309 -50.1321197 1067.84538252 -51.50292969 1067.66699219 C-150.87362022 1054.56780629 -246.04891638 1014.63398894 -329.390625 946.203125 C-330.28491211 945.45748291 -330.28491211 945.45748291 -331.19726562 944.69677734 C-344.90023767 933.23356892 -357.74362866 920.93647697 -370.390625 908.328125 C-370.88553436 907.83589447 -371.38044373 907.34366394 -371.89035034 906.83651733 C-377.61196478 901.1384413 -383.14925054 895.34829845 -388.390625 889.203125 C-389.41186643 888.0462348 -390.43527281 886.89125174 -391.4609375 885.73828125 C-398.94454627 877.25839506 -405.95404065 868.50438377 -412.71826172 859.44189453 C-414.42516519 857.15688653 -416.14409436 854.88124419 -417.86328125 852.60546875 C-437.50597271 826.44881401 -453.71419626 798.39734289 -468.390625 769.203125 C-469.0727002 767.86096924 -469.0727002 767.86096924 -469.76855469 766.49169922 C-498.75500781 709.19833703 -514.81575081 644.95989099 -520.390625 581.203125 C-520.47795395 580.23226959 -520.5652829 579.26141418 -520.65525818 578.26113892 C-521.34045696 570.12293148 -521.56503673 562.03986388 -521.59375 553.875 C-521.60076915 552.52589382 -521.607856 551.17678799 -521.61500549 549.8276825 C-521.63442628 545.53615855 -521.6394397 541.24468845 -521.640625 536.953125 C-521.64106686 536.22270618 -521.64150871 535.49228737 -521.64196396 534.73973465 C-521.64883798 513.08810478 -521.41714365 491.68730964 -518.390625 470.203125 C-518.21146776 468.88091977 -518.03277136 467.55865203 -517.85449219 466.23632812 C-504.57741485 368.94825008 -465.54905457 276.00583805 -398.390625 194.203125 C-397.89353027 193.60693359 -397.39643555 193.01074219 -396.88427734 192.39648438 C-385.2686652 178.51133088 -372.79118781 165.51609439 -360.015625 152.703125 C-359.49947632 152.18429749 -358.98332764 151.66546997 -358.45153809 151.13092041 C-352.61181726 145.2682049 -346.70292004 139.56143833 -340.390625 134.203125 C-339.30725198 133.25413375 -338.22517097 132.30366506 -337.14453125 131.3515625 C-328.85800548 124.12437175 -320.26915194 117.37881953 -311.47705078 110.77929688 C-309.52749861 109.30652495 -307.59538541 107.81406211 -305.66796875 106.3125 C-233.37392858 50.38186039 -143.24477127 15.52732539 0 0 Z " fill="#FEE020" transform="translate(521.390625,-0.203125)"/>
<path d="M0 0 C0 147.51 0 295.02 0 447 C-10.6052214 447 -20.03095564 446.96620753 -30.3125 445.3125 C-31.46693604 445.13243408 -32.62137207 444.95236816 -33.81079102 444.7668457 C-79.45411903 437.36667735 -120.6403321 416.9996578 -154 385 C-154.61633301 384.41621582 -155.23266602 383.83243164 -155.86767578 383.23095703 C-196.43302276 344.64635942 -221.68816188 288.9212699 -223.3125 232.8046875 C-224.65451567 173.54505128 -205.16200309 115.63112966 -164.05859375 72.19140625 C-163.03956772 71.1271202 -162.02000093 70.06335175 -161 69 C-160.41621582 68.38366699 -159.83243164 67.76733398 -159.23095703 67.13232422 C-149.57464882 56.98030716 -139.49536449 48.02037905 -128 40 C-127.28569824 39.50048828 -126.57139648 39.00097656 -125.83544922 38.48632812 C-116.07072912 31.76830553 -105.84716754 26.23135824 -95.1875 21.0625 C-94.09131348 20.53076172 -92.99512695 19.99902344 -91.86572266 19.45117188 C-80.53414376 14.09510433 -68.88848312 9.97659061 -56.75 6.875 C-55.77200439 6.62274658 -54.79400879 6.37049316 -53.78637695 6.1105957 C-44.92501083 3.88101745 -36.04779644 2.24732996 -27 1 C-26.09765625 0.86851562 -25.1953125 0.73703125 -24.265625 0.6015625 C-16.1651326 -0.40420334 -8.22925741 0 0 0 Z " fill="#000000" transform="translate(518,184)"/>
<path d="M0 0 C19.98405236 0 19.98405236 0 29.9375 1.5625 C31.07356689 1.73668457 32.20963379 1.91086914 33.38012695 2.09033203 C79.13242011 9.55224184 120.58056361 29.94301035 154 62 C154.61633301 62.58378418 155.23266602 63.16756836 155.86767578 63.76904297 C166.01969284 73.42535118 174.97962095 83.50463551 183 95 C183.49951172 95.71430176 183.99902344 96.42860352 184.51367188 97.16455078 C191.23169447 106.92927088 196.76864176 117.15283246 201.9375 127.8125 C202.46923828 128.90868652 203.00097656 130.00487305 203.54882812 131.13427734 C208.90489567 142.46585624 213.02340939 154.11151688 216.125 166.25 C216.50338013 167.71699341 216.50338013 167.71699341 216.8894043 169.21362305 C219.11483232 178.05849429 220.84410545 186.9525754 222 196 C222.0928125 196.71446289 222.185625 197.42892578 222.28125 198.16503906 C227.12765498 240.21989383 219.25103152 282.94146371 201 321 C200.46487793 322.11592529 200.46487793 322.11592529 199.91894531 323.25439453 C192.22750849 339.01374748 182.55355366 353.80204037 171 367 C170.35417969 367.75539063 169.70835937 368.51078125 169.04296875 369.2890625 C166.74896428 371.91203511 164.39457934 374.46929264 162 377 C161.4121875 377.62181152 160.824375 378.24362305 160.21875 378.88427734 C123.06089988 417.85762758 70.99024552 443.12417477 17 447 C11.39 447 5.78 447 0 447 C0 299.49 0 151.98 0 0 Z " fill="#000000" transform="translate(562,441)"/>
<path d="M0 0 C1.88332031 0.47566406 1.88332031 0.47566406 3.8046875 0.9609375 C18.90509227 5.04060363 33.39895891 12.47812552 45 23 C45.81339844 23.68449219 46.62679687 24.36898437 47.46484375 25.07421875 C68.31679142 42.97026629 82.25660516 68.83599834 84.80151367 96.30566406 C85.79529302 109.79563808 85.51651536 122.89298819 82 136 C81.73316406 137.05832031 81.46632813 138.11664062 81.19140625 139.20703125 C73.46580675 167.05352546 55.04006374 191.41920962 30.0390625 205.953125 C19.43834662 211.85718506 8.89155855 216.43776845 -3 219 C-3.81750732 219.18111328 -4.63501465 219.36222656 -5.47729492 219.54882812 C-32.98652316 225.14375666 -62.73231433 219.80896268 -86.4375 204.6875 C-112.70918474 187.1030366 -131.07868777 161.38146208 -137.56640625 130.28515625 C-142.79274146 101.76429838 -137.66765456 71.98927079 -121.43139648 47.7487793 C-103.60552406 22.20078329 -78.05195495 3.54784285 -47 -2 C-31.30615653 -4.03816149 -15.33066892 -4.14433467 0 0 Z " fill="#000000" transform="translate(434,667)"/>
<path d="M0 0 C1.88332031 0.47566406 1.88332031 0.47566406 3.8046875 0.9609375 C18.90509227 5.04060363 33.39895891 12.47812552 45 23 C45.81339844 23.68449219 46.62679687 24.36898437 47.46484375 25.07421875 C68.31679142 42.97026629 82.25660516 68.83599834 84.80151367 96.30566406 C85.79529302 109.79563808 85.51651536 122.89298819 82 136 C81.73316406 137.05832031 81.46632813 138.11664063 81.19140625 139.20703125 C73.46580675 167.05352546 55.04006374 191.41920962 30.0390625 205.953125 C19.43834662 211.85718506 8.89155855 216.43776845 -3 219 C-3.81750732 219.18111328 -4.63501465 219.36222656 -5.47729492 219.54882812 C-32.98652316 225.14375666 -62.73231433 219.80896268 -86.4375 204.6875 C-112.70918474 187.1030366 -131.07868777 161.38146208 -137.56640625 130.28515625 C-142.79274146 101.76429838 -137.66765456 71.98927079 -121.43139648 47.7487793 C-103.60552406 22.20078329 -78.05195495 3.54784285 -47 -2 C-31.30615653 -4.03816149 -15.33066892 -4.14433467 0 0 Z " fill="#000000" transform="translate(700,187)"/>
</svg>
